<svg width="16" height="16" viewBox="0 0 16 16" fill="none" xmlns="http://www.w3.org/2000/svg">
  <path d="M3.25 8.25L6.25 5.25C6.94036 4.55964 8.05964 4.55964 8.75 5.25C9.44036 5.94036 9.44036 7.05964 8.75 7.75L6.75 9.75" stroke="#424242" stroke-width="1.4" stroke-linecap="round" stroke-linejoin="round"/>
  <path d="M7.25 6.25L9.25 4.25C9.94036 3.55964 11.0596 3.55964 11.75 4.25L11.8 4.3C12.4904 4.99036 12.4904 6.10964 11.8 6.8L8.75 9.85C8.47386 10.1261 8.47386 10.5739 8.75 10.85L10.25 12.35" stroke="#424242" stroke-width="1.4" stroke-linecap="round" stroke-linejoin="round"/>
  <path d="M8.85 8.15L6.75 10.25C6.05964 10.9404 4.94036 10.9404 4.25 10.25C3.55964 9.55964 3.55964 8.44036 4.25 7.75L7.3 4.7" stroke="#424242" stroke-width="1.4" stroke-linecap="round" stroke-linejoin="round"/>
</svg>
